<svg viewBox="0 0 100 100" xmlns="http://www.w3.org/2000/svg">
  <g opacity="0.82">
    <ellipse cx="50" cy="21" rx="4" ry="15" fill="#e91e8c" transform="rotate(0,50,50)"/>
    <ellipse cx="50" cy="21" rx="4" ry="15" fill="#e91e8c" transform="rotate(18,50,50)"/>
    <ellipse cx="50" cy="21" rx="4" ry="15" fill="#e91e8c" transform="rotate(36,50,50)"/>
    <ellipse cx="50" cy="21" rx="4" ry="15" fill="#f48fb1" transform="rotate(54,50,50)"/>
    <ellipse cx="50" cy="21" rx="4" ry="15" fill="#f48fb1" transform="rotate(72,50,50)"/>
    <ellipse cx="50" cy="21" rx="4" ry="15" fill="#f48fb1" transform="rotate(90,50,50)"/>
    <ellipse cx="50" cy="21" rx="4" ry="15" fill="#e91e8c" transform="rotate(108,50,50)"/>
    <ellipse cx="50" cy="21" rx="4" ry="15" fill="#e91e8c" transform="rotate(126,50,50)"/>
    <ellipse cx="50" cy="21" rx="4" ry="15" fill="#e91e8c" transform="rotate(144,50,50)"/>
    <ellipse cx="50" cy="21" rx="4" ry="15" fill="#f48fb1" transform="rotate(162,50,50)"/>
    <ellipse cx="50" cy="21" rx="4" ry="15" fill="#f48fb1" transform="rotate(180,50,50)"/>
    <ellipse cx="50" cy="21" rx="4" ry="15" fill="#f48fb1" transform="rotate(198,50,50)"/>
    <ellipse cx="50" cy="21" rx="4" ry="15" fill="#e91e8c" transform="rotate(216,50,50)"/>
    <ellipse cx="50" cy="21" rx="4" ry="15" fill="#e91e8c" transform="rotate(234,50,50)"/>
    <ellipse cx="50" cy="21" rx="4" ry="15" fill="#e91e8c" transform="rotate(252,50,50)"/>
    <ellipse cx="50" cy="21" rx="4" ry="15" fill="#f48fb1" transform="rotate(270,50,50)"/>
    <ellipse cx="50" cy="21" rx="4" ry="15" fill="#f48fb1" transform="rotate(288,50,50)"/>
    <ellipse cx="50" cy="21" rx="4" ry="15" fill="#f48fb1" transform="rotate(306,50,50)"/>
    <ellipse cx="50" cy="21" rx="4" ry="15" fill="#e91e8c" transform="rotate(324,50,50)"/>
    <ellipse cx="50" cy="21" rx="4" ry="15" fill="#e91e8c" transform="rotate(342,50,50)"/>
  </g>
  <circle cx="50" cy="50" r="14" fill="#fdd835"/>
  <circle cx="50" cy="50" r="10" fill="#c2185b" opacity="0.28"/>
  <circle cx="50" cy="50" r="6" fill="#c2185b" opacity="0.20"/>
</svg>
