<svg viewBox="0 0 100 100" xmlns="http://www.w3.org/2000/svg">
  <path d="M50,50 C43,43 37,27 50,11 C63,27 57,43 50,50Z" fill="#e65100" transform="rotate(60,50,50)" opacity="0.90"/>
  <path d="M50,50 C43,43 37,27 50,11 C63,27 57,43 50,50Z" fill="#e65100" transform="rotate(180,50,50)" opacity="0.90"/>
  <path d="M50,50 C43,43 37,27 50,11 C63,27 57,43 50,50Z" fill="#e65100" transform="rotate(300,50,50)" opacity="0.90"/>
  <path d="M50,50 C43,43 37,27 50,11 C63,27 57,43 50,50Z" fill="#ff6f00" transform="rotate(0,50,50)"/>
  <path d="M50,50 C43,43 37,27 50,11 C63,27 57,43 50,50Z" fill="#ff6f00" transform="rotate(120,50,50)"/>
  <path d="M50,50 C43,43 37,27 50,11 C63,27 57,43 50,50Z" fill="#ff6f00" transform="rotate(240,50,50)"/>
  <circle cx="50" cy="30" r="2.0" fill="#bf360c" opacity="0.48"/>
  <circle cx="46" cy="36" r="1.4" fill="#bf360c" opacity="0.36"/>
  <circle cx="54" cy="36" r="1.4" fill="#bf360c" opacity="0.36"/>
  <line x1="50" y1="50" x2="50" y2="26" stroke="#558b2f" stroke-width="1.6"/>
  <circle cx="50" cy="23" r="3.5" fill="#fff9c4"/>
  <line x1="50" y1="50" x2="71.6" y2="37" stroke="#558b2f" stroke-width="1.6"/>
  <circle cx="74" cy="36" r="3.5" fill="#fff9c4"/>
  <line x1="50" y1="50" x2="71.6" y2="63" stroke="#558b2f" stroke-width="1.6"/>
  <circle cx="74" cy="64" r="3.5" fill="#fff9c4"/>
  <line x1="50" y1="50" x2="50" y2="74" stroke="#558b2f" stroke-width="1.6"/>
  <circle cx="50" cy="77" r="3.5" fill="#fff9c4"/>
  <line x1="50" y1="50" x2="28.4" y2="63" stroke="#558b2f" stroke-width="1.6"/>
  <circle cx="26" cy="64" r="3.5" fill="#fff9c4"/>
  <line x1="50" y1="50" x2="28.4" y2="37" stroke="#558b2f" stroke-width="1.6"/>
  <circle cx="26" cy="36" r="3.5" fill="#fff9c4"/>
  <circle cx="50" cy="50" r="4" fill="#e65100" opacity="0.35"/>
</svg>
