<svg viewBox="0 0 100 100" xmlns="http://www.w3.org/2000/svg">
  <g opacity="0.70">
    <ellipse cx="50" cy="23" rx="11" ry="17" fill="#f48fb1" transform="rotate(0,50,50)"/>
    <ellipse cx="50" cy="23" rx="11" ry="17" fill="#f48fb1" transform="rotate(51,50,50)"/>
    <ellipse cx="50" cy="23" rx="11" ry="17" fill="#f48fb1" transform="rotate(103,50,50)"/>
    <ellipse cx="50" cy="23" rx="11" ry="17" fill="#f48fb1" transform="rotate(154,50,50)"/>
    <ellipse cx="50" cy="23" rx="11" ry="17" fill="#f48fb1" transform="rotate(206,50,50)"/>
    <ellipse cx="50" cy="23" rx="11" ry="17" fill="#f48fb1" transform="rotate(257,50,50)"/>
    <ellipse cx="50" cy="23" rx="11" ry="17" fill="#f48fb1" transform="rotate(309,50,50)"/>
  </g>
  <g opacity="0.88">
    <ellipse cx="50" cy="29" rx="9" ry="13" fill="#e91e8c" transform="rotate(0,50,50)"/>
    <ellipse cx="50" cy="29" rx="9" ry="13" fill="#e91e8c" transform="rotate(72,50,50)"/>
    <ellipse cx="50" cy="29" rx="9" ry="13" fill="#e91e8c" transform="rotate(144,50,50)"/>
    <ellipse cx="50" cy="29" rx="9" ry="13" fill="#e91e8c" transform="rotate(216,50,50)"/>
    <ellipse cx="50" cy="29" rx="9" ry="13" fill="#e91e8c" transform="rotate(288,50,50)"/>
  </g>
  <ellipse cx="50" cy="36" rx="7" ry="10" fill="#c2185b" transform="rotate(0,50,50)"/>
  <ellipse cx="50" cy="36" rx="7" ry="10" fill="#c2185b" transform="rotate(120,50,50)"/>
  <ellipse cx="50" cy="36" rx="7" ry="10" fill="#c2185b" transform="rotate(240,50,50)"/>
  <circle cx="50" cy="50" r="8" fill="#fff9c4"/>
</svg>
