<svg viewBox="0 0 100 100" xmlns="http://www.w3.org/2000/svg">
  <path d="M50,82 C28,82 18,58 22,32 C25,18 35,10 45,14 C40,28 38,52 50,62 Z"
        fill="#d4cbbf" stroke="#c8bfb0" stroke-width="1" opacity="0.9"/>
  <path d="M50,82 C72,82 82,58 78,32 C75,18 65,10 55,14 C60,28 62,52 50,62 Z"
        fill="#d4cbbf" stroke="#c8bfb0" stroke-width="1" opacity="0.9"/>
  <path d="M50,82 C34,82 28,62 32,38 C35,22 42,12 50,10 C58,12 65,22 68,38 C72,62 66,82 50,82 Z"
        fill="#ede8e0" stroke="#c8bfb0" stroke-width="1.5"/>
  <path d="M44,20 C41,32 40,52 43,68"
        stroke="#f0ebe3" stroke-width="3.5" fill="none" opacity="0.70" stroke-linecap="round"/>
  <path d="M35,80 C38,88 62,88 65,80"
        stroke="#c8bfb0" stroke-width="2" fill="none" opacity="0.55"/>
</svg>
